<?xml version="1.0" encoding="UTF-8"?>
<svg version="2" viewBox="0 0 1085 1000" width="1085" height="1000" xmlns="http://www.w3.org/2000/svg">
<metadata xmlns:rdf="http://www.w3.org/1999/02/22-rdf-syntax-ns#"
          xmlns:dcterms="http://purl.org/dc/terms/"
          xmlns:dc11="http://purl.org/dc/elements/1.1/"
          xmlns:cc="http://creativecommons.org/ns#" >
  <rdf:RDF>
    <cc:Work rdf:about="">
      <dc11:format>image/svg+xml</dc11:format>
      <dc11:type  rdf:resource="http://purl.org/dc/dcmitype/InteractiveResource" />
      <cc:license rdf:resource="https://creativecommons.org/publicdomain/zero/1.0/" />
      <cc:license rdf:resource="https://opendatacommons.org/licenses/pddl/1-0/"  />
      <cc:attributionName>Mardeg</cc:attributionName>
    </cc:Work>
    <cc:License    rdf:about="https://creativecommons.org/publicdomain/zero/1.0/">
      <cc:permits  rdf:resource="http://creativecommons.org/ns#Reproduction" />
      <cc:permits  rdf:resource="http://creativecommons.org/ns#Distribution" />
      <cc:permits  rdf:resource="http://creativecommons.org/ns#DerivativeWorks" />
      <cc:legalcode rdf:resource="https://creativecommons.org/publicdomain/zero/1.0/legalcode" />
      <dcterms:isVersionOf rdf:resource="https://creativecommons.org/publicdomain/" />
    </cc:License>
    <cc:License rdf:about="https://opendatacommons.org/licenses/pddl/summary/" >
      <cc:legalcode rdf:resource="https://opendatacommons.org/licenses/pddl/1-0/index.html" />
      <dcterms:isVersionOf rdf:resource="https://opendatacommons.org/licenses/pddl/" />
    </cc:License>
  </rdf:RDF>
</metadata>
<style>
/* <![CDATA[ */
svg{background-color:#000}
text{
  user-select:none;
}
@keyframes singles{from{transform:translateY(0)}to{transform:translateY(-400px)}}
@keyframes tens{from{transform:translateY(0)}to{transform:translateY(-240px)}}
@keyframes minutes{from{transform:translateY(0)}to{transform:translateY(-400px)}}
@keyframes minutesX10{from{transform:translateY(0)}to{transform:translateY(-400px)}}
@keyframes colon{from{fill:yellow}50%{fill:yellow}51%{fill:rgba(0,0,0,0)}to{fill:rgba(0,0,0,0)}}
#singles{
	animation:singles 10s steps(10,end) 600 forwards;
}
#tens{
	animation:tens 60s steps(6,end) 100 forwards;
}
#minutes{
	animation:minutes 600s steps(10,end) 10 forwards;
}
#minutesX10{
	animation:minutesX10 6000s steps(10,end) 1 forwards;
}
#colon{
	animation:colon 0.5s 0.25s linear 12000 alternate;
}
use[href="#src"]:not([x="244"]) {transform:scale(0.250452)}
/* ]]> */
</style>
<script>
/* <![CDATA[ */
// @license magnet:?xt=urn:btih:90dc5c0be029de84e523b9b3922520e79e0e6f08&dn=cc0.txt
let wpc = 0, wp, mpX, mpY;
function insideJigsaw(m,tp) {
  let mX = m.clientX, mY = m.clientY;
  if (mX != mpX && mY != mpY) return (mX >= 280 && mX <= 720)&&(mY >= 155 && mY <= (tp?950:850));
  return false;
}
function offsets(tl) {
  for (let i = 0; i < tl.numberOfItems; i++) {
    const transform = tl.getItem(i);
    if (transform.type === SVGTransform.SVG_TRANSFORM_TRANSLATE) return [transform.matrix.e,transform.matrix.f];
  }
}
function parseTransform(el) {
  const t = {
    tx: 0,
    ty: 0,
    angle: 0
  };
  const tf = (el.getAttribute('transform') || '').trim();
  const trMatch = tf.match(/translate\(\s*([-\d.+e]+)(?:[ ,]\s*([-\d.+e]+))?\s*\)/i);
  if(trMatch) {
    t.tx = parseFloat(trMatch[1]) || 0;
    t.ty = parseFloat(trMatch[2]) || 0;
  }
  const rotMatch = tf.match(/rotate\(([^,)]+)(?:,\s*[^,)]+,\s*[^,)]+)?\)/);
  if(rotMatch) {
    t.angle = parseFloat(rotMatch[1]) || 0;
  }
  return t;
}
function writeTransform(el, tx, ty) {
  el.setAttribute('transform', `translate(${tx} ${ty})`);
}
function shuffleArray(ary) {
  let currentIndex = ary.length, randomIndex;
  while (currentIndex !== 0) {
    randomIndex = Math.floor(Math.random() * currentIndex);
    currentIndex--;
    [ary[currentIndex], ary[randomIndex]] = [ary[randomIndex], ary[currentIndex]];
  }
  return ary;
}
function shuffleCoordinates() {
  const elements = document.querySelectorAll('use[href="#ur"]');
  const coordinates = [];
  elements.forEach(element => {
    const x = element.getAttribute('x');
    const y = element.getAttribute('y');
    if (x !== null && y !== null) {
      coordinates.push({ x: x, y: y });
    }
  });
  shuffleArray(coordinates);
  elements.forEach((element, index) => {
    if (index < coordinates.length) {
      const newCoords = coordinates[index];
      element.setAttribute('x', newCoords.x);
      element.setAttribute('y', newCoords.y);
    }
  });
}
function hint(tX,tY) {
  if (tX && tY) {if (tX > 150 || tY > 100) return;}
  const cp = document.querySelector("[clip-path]");
  if (!cp) return;
  cp.removeAttribute("clip-path");
  tId = setTimeout(() => {
    cp.setAttribute("clip-path", "url(#edges)");
  }, 2000);
}
document.onreadystatechange = () => {
  if(document.readyState === "interactive") {
    shuffleCoordinates();
    const svgCanvas = document.querySelector("svg");
    let isDragging = false,wb = 1;
    let xcoord,ycoord,cel;
    for (const u of document.querySelectorAll('g[transform^="translate"]')) {
      u.addEventListener("wheel", (e) => {
        e.preventDefault();
        let v = u.firstElementChild,
        w = parseTransform(v),
        ux = parseFloat(v.getAttribute("x")) + 50,
        uy = parseFloat(v.getAttribute("y")) + 50,
        ra = w.angle;
        wb = -(wb);
        if (wb > 0) v.setAttribute("transform","rotate(" + ((e.deltaY > 0)?(ra + (ra==345?-(ra):15)):(ra==-345?(ra + 345):(ra - 15))) + "," + ux +"," + uy +")");
      });
      u.addEventListener("mousedown", (e) => {
        if(e.button != 0) return;
        isDragging = true;
        cel = u;
        let [tX,tY] = offsets(cel.transform.baseVal);
        mpX = e.clientX;
        mpY = e.clientY;
        xcoord = mpX - 25 - tX;
        ycoord = mpY - 25 - tY;
      });
    }
    svgCanvas.addEventListener("mousemove", (e) => { 
      if (isDragging) {
        cel.setAttribute("transform","translate(" + (e.clientX - 25 - xcoord) + " " + (e.clientY - 25 - ycoord) + ")");
      }
    });
    svgCanvas.addEventListener("mouseup", (e) => {
      let et = e.target.parentNode;
      if ((insideJigsaw(e))&&(et instanceof SVGGElement)&&(wp!=et)&&(wpc < 9999999)) {
        wp = et;
        wpc++;
        document.getElementById("moves").textContent = wpc.toString().padStart(7, "0");
      } else if (isDragging && !insideJigsaw(e)) cel.setAttribute("transform","translate(0 0)");
      isDragging = false;
    });
    ck.addEventListener("mouseover", (e) => {
      const cp = document.querySelector("[clip-path]");
      if (cp && !tId && e.clientY < 90) hint();
    });
    ck.addEventListener("mouseout", (e) => {
      if (e.clientY > 100 || e.clientX > 150) tId = null;
    });
    svgCanvas.addEventListener('touchstart', onTouchStart, {
      passive: false
    });
    svgCanvas.addEventListener('touchmove', onTouchMove, {
      passive: false
    });
    svgCanvas.addEventListener('touchend', onTouchEnd, {
      passive: false
    });
    svgCanvas.addEventListener('touchcancel', onTouchCancel, {
      passive: false
    });
  }
}
// Touch support for dragging and second-finger tap rotation. 
const MOVE_THRESHOLD = 2; // pixels 
let primaryTouch = null; // {	id,	startX, startY,	elem, origTx,	origTy, origAngle, moved, currentAngle }
let rotationTouch = null; // { id }
const pieceSelector = 'g[transform^="translate"]';
let piecesCache = null;

function refreshPiecesCache() {
  piecesCache = new Set(document.querySelectorAll(pieceSelector));
}

function getTouchById(touches, id) {
  for(let i = 0; i < touches.length; i++) {
    if(touches[i].identifier === id) return touches[i];
  }
  return null;
}

function findPieceElement(node) {
  if(!piecesCache) refreshPiecesCache();
  while(node && node !== document) {
    if(piecesCache.has(node)) return node;
    node = node.parentNode;
  }
  return null;
}

function onTouchStart(e) {
  if(!e.changedTouches || e.changedTouches.length === 0) return; // For each new touch, check target piece 
  for(let i = 0; i < e.changedTouches.length; i++) {
    const t = e.changedTouches[i];
    hint(t.clientY, t.clientX);
    const target = document.elementFromPoint(t.clientX, t.clientY);
    if(!target) continue;
    if(!primaryTouch) {
      const piece = findPieceElement(target);
      if(!piece) continue; // If no primary touch, set this as primary (drag) 
      cel = piece;
      const tf = parseTransform(piece),
      tfc = parseTransform(piece.firstElementChild);
      for (const rv of document.querySelectorAll('path[style$="arrow)"]')) {
        rv.setAttribute("stroke","rgba(0,0,255,1)")
      }
      primaryTouch = {
        id: t.identifier,
        startX: t.clientX,
        startY: t.clientY,
        elem: piece,
        origTx: tf.tx,
        origTy: tf.ty,
        origAngle: tfc.angle,
        moved: false
      }; // Refresh pieces cache in case DOM changed 
      refreshPiecesCache();
      e.preventDefault();
    } else if(!rotationTouch) { // If a second finger touches rotation buttons, do the rotation 
      let v = primaryTouch.elem.firstElementChild;
      const tf = parseTransform(v),
      pressed = document.elementFromPoint(t.clientX, t.clientY);
      if(!pressed) continue;
      let ux = parseFloat(v.getAttribute("x")) + 50,
      uy = parseFloat(v.getAttribute("y")) + 50,
      ra = tf.angle;
      if(pressed.getAttribute("id") == "cw") {
        v.setAttribute("transform","rotate(" + (ra>330?0:(ra + 15)) + "," + ux +"," + uy +")")
      } else if (pressed.getAttribute("id") == "acw"){
        v.setAttribute("transform","rotate(" + (ra<0?330:(ra - 15)) + "," + ux +"," + uy +")")
      } 
      rotationTouch = {
        id: t.identifier,
      };
      e.preventDefault();
    }
  }
}

function onTouchMove(e) {
  if(!primaryTouch && !rotationTouch) return;
  e.preventDefault();
  if(primaryTouch) {
    const t = getTouchById(e.touches, primaryTouch.id);
    if(t) {
      const dx = t.clientX - primaryTouch.startX;
      const dy = t.clientY - primaryTouch.startY;
      if(!primaryTouch.moved && Math.hypot(dx, dy) < MOVE_THRESHOLD) { // ignore tiny jitter 
      } else {
        primaryTouch.moved = true;
        const newTx = primaryTouch.origTx + dx;
        const newTy = primaryTouch.origTy + dy;
        writeTransform(primaryTouch.elem, newTx, newTy);
      }
    }
  }
}

function onTouchEnd(e) {
  for(let i = 0; i < e.changedTouches.length; i++) {
    const t = e.changedTouches[i];
    if(primaryTouch && t.identifier === primaryTouch.id) {
      let et = primaryTouch.elem;
      if ((insideJigsaw(t))&&(et instanceof SVGGElement)&&(wp!=et)&&(wpc < 9999999)) {
        wp = et;
        wpc++;
        document.getElementById("moves").textContent = wpc.toString().padStart(7, "0");
      } else if (primaryTouch && !insideJigsaw(t,true)) cel.setAttribute("transform","translate(0 0)");
      primaryTouch = null;
      rotationTouch = null;
      for (const rv of document.querySelectorAll('path[style$="arrow)"]')) {
        rv.setAttribute("stroke","rgba(0,0,255,0)")
      }
    }
    if(rotationTouch && t.identifier === rotationTouch.id) {
      rotationTouch = null;
      if(primaryTouch && primaryTouch.currentAngle !== undefined) {
        primaryTouch.origAngle = primaryTouch.currentAngle;
        primaryTouch.currentAngle = undefined;
      }
    }
  }
}

function onTouchCancel(e) {
  onTouchEnd(e);
}

/* ]]> */
// @license-end
</script>
<defs>
 <path id="ur" transform="scale(3.99271474)" stroke="none"
d="m 10.82775,20.460318 c -1.746242,-3.175 -3.5454137,-3.175 -5.2916661,-10e-6 -3.1749935,-1.74625 -3.1749891,-3.54541 1.67e-5,-5.29167 0.075193,-3.62275 -1.4829278,-4.52233 -4.58272617,-2.64582 -1.87650412,-3.0998002 -0.97692262,-4.6579202 2.64583397,-4.5827202 1.7462516,3.1750002 3.5454151,3.1750002 5.291671,0 -3.1750159,-1.74625 -3.1750008,-3.54542 -7.6e-6,-5.29167 3.0997972,1.87651 4.6579302,0.97693 4.5827252,-2.64582996 3.622746,-0.0752 4.522336,1.48291996 2.645833,4.58271996 -3.622765,-0.0752 -4.522346,1.48291 -2.645842,4.58271 3.099798,-1.8765 4.657926,-0.97692 4.58273,2.6458402 -3.174996,1.74626 -3.175005,3.54541 -1.2e-5,5.29166 3.174998,1.74624 3.175014,3.54542 1.8e-5,5.29167 -3.09982,-1.87651 -4.657935,-0.97692 -4.582731,2.64582 -3.62275,0.0752 -4.5223296,-1.48291 -2.645843,-4.5827" />
 <mask id="tiMask">
  <rect x="34" y="25" width="130" height="40" fill="white" />
 </mask>
 <filter id="glower">
  <feDiffuseLighting diffuseConstant="1.5" surfaceScale="-1.5" lighting-color="goldenrod" result="tr">
    <feDistantLight azimuth="45" elevation="15"/>
  </feDiffuseLighting>
  <feComposite in="tr" in2="SourceGraphic" operator="in"/>
 </filter>
<pattern id="i01" x="70.36" y="171.17" width="128.4" height="192.6" patternTransform="rotate(330)" patternUnits="userSpaceOnUse">
  <use href="#src" />
</pattern>
<pattern id="i02" x="63.26" y="151.55" width="128.4" height="192.6" patternTransform="rotate(270)" patternUnits="userSpaceOnUse">
  <use href="#src" />
</pattern>
<pattern id="i03" x="56.19" y="123.36" width="128.4" height="192.6" patternTransform="rotate(150)" patternUnits="userSpaceOnUse">
  <use href="#src" />
</pattern>
<pattern id="i04" x="54.93" y="166.5" width="128.4" height="192.6" patternTransform="rotate(210)" patternUnits="userSpaceOnUse">
  <use href="#src" />
</pattern>
<pattern id="i05" x="70.02" y="168.03" width="128.4" height="192.6" patternTransform="rotate(90)" patternUnits="userSpaceOnUse">
  <use href="#src" />
</pattern>
<pattern id="i06" x="66.77" y="155.5" width="128.4" height="192.6" patternTransform="rotate(90)" patternUnits="userSpaceOnUse">
  <use href="#src" />
</pattern>
<pattern id="i07" x="60.02" y="138.9" width="128.4" height="192.6" patternTransform="rotate(270)" patternUnits="userSpaceOnUse">
  <use href="#src" />
</pattern>
<pattern id="i08" x="71.62" y="128.07" width="128.4" height="192.6" patternTransform="rotate(30)" patternUnits="userSpaceOnUse">
  <use href="#src" />
</pattern>
<pattern id="i09" x="80.88" y="118.8" width="128.4" height="192.6" patternTransform="rotate(30)" patternUnits="userSpaceOnUse">
  <use href="#src" />
</pattern>
<pattern id="i10" x="94.14" y="102.97" width="128.4" height="192.6" patternTransform="rotate(90)" patternUnits="userSpaceOnUse">
  <use href="#src" />
</pattern>
<pattern id="i11" x="80.36" y="96.84" width="128.4" height="192.6" patternTransform="rotate(60)" patternUnits="userSpaceOnUse">
  <use href="#src" />
</pattern>
<pattern id="i12" x="74.44" y="79.98" width="128.4" height="192.6" patternTransform="rotate(150)" patternUnits="userSpaceOnUse">
  <use href="#src" />
</pattern>
<pattern id="i13" x="69.01" y="77.87" width="128.4" height="192.6" patternTransform="rotate(90)" patternUnits="userSpaceOnUse">
  <use href="#src" />
</pattern>
<pattern id="i14" x="53.92" y="76.55" width="128.4" height="192.6" patternTransform="rotate(210)" patternUnits="userSpaceOnUse">
  <use href="#src" />
</pattern>
<pattern id="i15" x="71.22" y="49.26" width="128.4" height="192.6" patternTransform="rotate(150)" patternUnits="userSpaceOnUse">
  <use href="#src" />
</pattern>
<pattern id="i16" x="65.76" y="65.36" width="128.4" height="192.6" patternTransform="rotate(90)" patternUnits="userSpaceOnUse">
  <use href="#src" />
</pattern>
<pattern id="i17" x="58.68" y="45.66" width="128.4" height="192.6" patternTransform="rotate(150)" patternUnits="userSpaceOnUse">
  <use href="#src" />
</pattern>
<pattern id="i18" x="62.25" y="61.3" width="128.4" height="192.6" patternTransform="rotate(270)" patternUnits="userSpaceOnUse">
  <use href="#src" />
</pattern>
<pattern id="i19" x="74.12" y="50.47" width="128.4" height="192.6" patternTransform="rotate(30)" patternUnits="userSpaceOnUse">
  <use href="#src" />
</pattern>
<pattern id="i20" x="96.62" y="25.29" width="128.4" height="192.6" patternTransform="rotate(90)" patternUnits="userSpaceOnUse">
  <use href="#src" />
</pattern>
<pattern id="i21" x="83" y="41.15" width="128.4" height="192.6" patternTransform="rotate(30)" patternUnits="userSpaceOnUse">
  <use href="#src" />
</pattern>
<pattern id="i22" x="53.58" y="46.66" width="128.4" height="192.6" patternTransform="rotate(-30)" patternUnits="userSpaceOnUse">
  <use href="#src" />
</pattern>
<pattern id="i23" x="93.32" y="21.53" width="128.4" height="192.6" patternTransform="rotate(270)" patternUnits="userSpaceOnUse">
  <use href="#src" />
</pattern>
<pattern id="i24" x="112.93" y="44.39" width="128.4" height="192.6" patternTransform="rotate(330)" patternUnits="userSpaceOnUse">
  <use href="#src" />
</pattern>
<pattern id="i25" x="100.41" y="40.88" width="128.4" height="192.6" patternTransform="rotate(330)" patternUnits="userSpaceOnUse">
  <use href="#src" />
</pattern>
<pattern id="i26" x="87.9" y="37.64" width="128.4" height="192.6" patternTransform="rotate(330)" patternUnits="userSpaceOnUse">
  <use href="#src" />
</pattern>
<pattern id="i27" x="65.67" y="37.88" width="128.4" height="192.6" patternTransform="rotate(300)" patternUnits="userSpaceOnUse">
  <use href="#src" />
</pattern>
<pattern id="i28" x="133.23" y="47.93" width="128.4" height="192.6" patternTransform="rotate(30)" patternUnits="userSpaceOnUse">
  <use href="#src" />
</pattern>
<pattern id="i29" x="105.36" y="40.04" width="128.4" height="192.6" patternTransform="rotate(150)" patternUnits="userSpaceOnUse">
  <use href="#src" />
</pattern>
<pattern id="i30" x="119.46" y="87.8" width="128.4" height="192.6" patternTransform="rotate(330)" patternUnits="userSpaceOnUse">
  <use href="#src" />
</pattern>
<pattern id="i31" x="115.79" y="72.16" width="128.4" height="192.6" patternTransform="rotate(90)" patternUnits="userSpaceOnUse">
  <use href="#src" />
</pattern>
<pattern id="i32" x="119.1" y="84.51" width="128.4" height="192.6" patternTransform="rotate(90)" patternUnits="userSpaceOnUse">
  <use href="#src" />
</pattern>
<pattern id="i33" x="130.46" y="103.45" width="128.4" height="192.6" patternTransform="rotate(60)" patternUnits="userSpaceOnUse">
  <use href="#src" />
</pattern>
<pattern id="i34" x="130.73" y="125.4" width="128.4" height="192.6" patternTransform="rotate(30)" patternUnits="userSpaceOnUse">
  <use href="#src" />
</pattern>
<pattern id="i35" x="122" y="135" width="128.4" height="192.6" patternTransform="rotate(30)" patternUnits="userSpaceOnUse">
  <use href="#src" />
</pattern>
<pattern id="i36" x="106.44" y="130.24" width="128.4" height="192.6" patternTransform="rotate(150)" patternUnits="userSpaceOnUse">
  <use href="#src" />
</pattern>
<pattern id="i37" x="113.08" y="149.58" width="128.4" height="192.6" patternTransform="rotate(90)" patternUnits="userSpaceOnUse">
  <use href="#src" />
</pattern>
<pattern id="i38" x="93" y="170" width="128.4" height="192.6" patternTransform="rotate(210)" patternUnits="userSpaceOnUse">
  <use href="#src" />
</pattern>
<pattern id="i39" x="78.5" y="186" width="128.4" height="192.6" patternTransform="rotate(270)" patternUnits="userSpaceOnUse">
  <use href="#src" />
</pattern>
<pattern id="i40" x="53.39" y="171.21" width="128.4" height="192.6" patternTransform="rotate(30)" patternUnits="userSpaceOnUse">
  <use href="#src" />
</pattern>
<pattern id="i41" x="25.48" y="163.48" width="128.4" height="192.6" patternTransform="rotate(150)" patternUnits="userSpaceOnUse">
  <use href="#src" />
</pattern>
<pattern id="i42" x="4.9" y="159.75" width="128.4" height="192.6" patternTransform="rotate(210)" patternUnits="userSpaceOnUse">
  <use href="#src" />
</pattern>
<pattern id="i43" x="20.2" y="164.45" width="128.4" height="192.6" patternTransform="rotate(330)" patternUnits="userSpaceOnUse">
  <use href="#src" />
</pattern>
<pattern id="i44" x="13" y="144.9" width="128.4" height="192.6" patternTransform="rotate(270)" patternUnits="userSpaceOnUse">
  <use href="#src" />
</pattern>
<pattern id="i45" x="33.92" y="124.5" width="128.4" height="192.6" patternTransform="rotate(30)" patternUnits="userSpaceOnUse">
  <use href="#src" />
</pattern>
<pattern id="i46" x="16.55" y="121.33" width="128.4" height="192.6" patternTransform="rotate(300)" patternUnits="userSpaceOnUse">
  <use href="#src" />
</pattern>
<pattern id="i47" x="7.5" y="82.36" width="128.4" height="192.6" patternTransform="rotate(210)" patternUnits="userSpaceOnUse">
  <use href="#src" />
</pattern>
<pattern id="i48" x="22.68" y="86.7" width="128.4" height="192.6" patternTransform="rotate(330)" patternUnits="userSpaceOnUse">
  <use href="#src" />
</pattern>
<pattern id="i49" x="8.6" y="39.3" width="128.4" height="192.6" patternTransform="rotate(150)" patternUnits="userSpaceOnUse">
  <use href="#src" />
</pattern>
<pattern id="i50" x="36.5" y="47.2" width="128.4" height="192.6" patternTransform="rotate(30)" patternUnits="userSpaceOnUse">
  <use href="#src" />
</pattern>
<pattern id="i51" x="85.1" y="36.55" width="128.4" height="192.6" patternTransform="rotate(210)" patternUnits="userSpaceOnUse">
  <use href="#src" />
</pattern>
<pattern id="i52" x="75.46" y="45.61" width="128.4" height="192.6" patternTransform="rotate(210)" patternUnits="userSpaceOnUse">
  <use href="#src" />
</pattern>
<pattern id="i53" x="112" y="59.5" width="128.4" height="192.6" patternTransform="rotate(90)" patternUnits="userSpaceOnUse">
  <use href="#src" />
</pattern>
<pattern id="i54" x="102.5" y="88" width="128.4" height="192.6" patternTransform="rotate(30)" patternUnits="userSpaceOnUse">
  <use href="#src" />
</pattern>
<pattern id="i55" x="87" y="83.3" width="128.4" height="192.6" patternTransform="rotate(150)" patternUnits="userSpaceOnUse">
  <use href="#src" />
</pattern>
<pattern id="i56" x="100.91" y="130.9" width="128.4" height="192.6" patternTransform="rotate(330)" patternUnits="userSpaceOnUse">
  <use href="#src" />
</pattern>
<pattern id="i57" x="73" y="123.17" width="128.4" height="192.6" patternTransform="rotate(210)" patternUnits="userSpaceOnUse">
  <use href="#src" />
</pattern>
<pattern id="i58" x="93.86" y="126.9" width="128.4" height="192.6" patternTransform="rotate(150)" patternUnits="userSpaceOnUse">
  <use href="#src" />
</pattern>
<pattern id="i59" x="74.72" y="138" width="128.4" height="192.6" patternTransform="rotate(180)" patternUnits="userSpaceOnUse">
  <use href="#src" />
</pattern>
<pattern id="i60" x="64.25" y="157.11" width="128.4" height="192.6" patternTransform="rotate(210)" patternUnits="userSpaceOnUse">
  <use href="#src" />
</pattern>
<pattern id="i61" x="93.2" y="48.95" width="128.4" height="192.6" patternTransform="rotate(120)" patternUnits="userSpaceOnUse">
  <use href="#src" />
</pattern>
<pattern id="i62" x="63.4" y="143.1" width="128.4" height="192.6" patternTransform="rotate(90)" patternUnits="userSpaceOnUse">
  <use href="#src" />
</pattern>
<pattern id="i63" x="51.7" y="156.1" width="128.4" height="192.6" patternUnits="userSpaceOnUse">
  <use href="#src" />
</pattern>
<pattern id="i64" x="32.86" y="167.49" width="128.4" height="192.6" patternTransform="rotate(330)" patternUnits="userSpaceOnUse">
  <use href="#src" />
</pattern>
<pattern id="i65" x="62.25" y="137.17" width="128.4" height="192.6" patternTransform="rotate(30)" patternUnits="userSpaceOnUse">
  <use href="#src" />
</pattern>
<pattern id="i66" x="47.5" y="108.7" width="128.4" height="192.6" patternTransform="rotate(90)" patternUnits="userSpaceOnUse">
  <use href="#src" />
</pattern>
<pattern id="i67" x="51" y="124.25" width="128.4" height="192.6" patternTransform="rotate(330)" patternUnits="userSpaceOnUse">
  <use href="#src" />
</pattern>
<pattern id="i68" x="38.5" y="120.94" width="128.4" height="192.6" patternTransform="rotate(330)" patternUnits="userSpaceOnUse">
  <use href="#src" />
</pattern>
<pattern id="i69" x="55.6" y="93.81" width="128.4" height="192.6" patternTransform="rotate(30)" patternUnits="userSpaceOnUse">
  <use href="#src" />
</pattern>
<pattern id="i70" x="35.25" y="90.22" width="128.4" height="192.6" patternTransform="rotate(330)" patternUnits="userSpaceOnUse">
  <use href="#src" />
</pattern>
<pattern id="i71" x="54" y="78.95" width="128.4" height="192.6" patternUnits="userSpaceOnUse">
  <use href="#src" />
</pattern>
<pattern id="i72" x="64.63" y="59.81" width="128.4" height="192.6" patternTransform="rotate(30)" patternUnits="userSpaceOnUse">
  <use href="#src" />
</pattern>
<pattern id="i73" x="49.78" y="31" width="128.4" height="192.6" patternTransform="rotate(90)" patternUnits="userSpaceOnUse">
  <use href="#src" />
</pattern>
<pattern id="i74" x="15.48" y="67.32" width="128.4" height="192.6" patternTransform="rotate(270)" patternUnits="userSpaceOnUse">
  <use href="#src" />
</pattern>
<pattern id="i75" x="46.47" y="18.52" width="128.4" height="192.6" patternTransform="rotate(90)" patternUnits="userSpaceOnUse">
  <use href="#src" />
</pattern>
<pattern id="i76" x="16" y="43.29" width="128.4" height="192.6" patternTransform="rotate(330)" patternUnits="userSpaceOnUse">
  <use href="#src" />
</pattern>
<pattern id="i77" x="35" y="32.03" width="128.4" height="192.6" patternUnits="userSpaceOnUse">
  <use href="#src" />
</pattern>
<pattern id="i78" x="39.41" y="-0.83" width="128.4" height="192.6" patternTransform="rotate(150)" patternUnits="userSpaceOnUse">
  <use href="#src" />
</pattern>
<pattern id="i79" x="46.49" y="27.28" width="128.4" height="192.6" patternTransform="rotate(270)" patternUnits="userSpaceOnUse">
  <use href="#src" />
</pattern>
<filter id="b"><feTurbulence baseFrequency=".002 .02" numOctaves="9" result="n"/><feDiffuseLighting surfaceScale="9" lighting-color="#BA8C63"><feDistantLight elevation="60" azimuth="-90"/></feDiffuseLighting><feDisplacementMap in2="n" scale="50"/></filter>
<rect id="src" width="512" height="768" filter="url(#b)"/>
<clipPath id="edges">
  <path
   d="m 0,0 c -5.4249758,74.372204 -0.04793206,605.13361 -0.04793206,605.13361 0,0 2.77185926,-4.43572 8.73609756,-7.26169 12.9764245,7.40811 18.6115205,3.80507 18.3152095,-10.79857 -24.2727713,1.02784 -10.558152,-18.12664 -10.558152,-18.12664 0,0 23.17181,2.13441 10.527068,-18.29141 20.404792,-12.93392 18.358869,10.51448 18.358869,10.51448 0,0 19.180807,13.60039 18.221035,-10.50025 -24.184805,0.76908 -10.576492,-18.29834 -10.576492,-18.29834 0,0 -9.42848,-21.5248 -21.075636,0.0226 -21.140753,-11.59213 0.08023,-21.05198 0.08023,-21.05198 0,0 2.56196,-23.36917 -18.326291,-10.66123 -12.90247092,-20.51858 10.491589,-18.29614 10.491589,-18.29614 0,0 13.652345,-19.43198 -10.560135,-18.24056 -0.933156,-24.24394 18.333945,-10.67279 18.333945,-10.67279 0,0 -2.246686,23.32893 18.262316,10.64711 -12.787946,-20.49971 10.555802,-18.35483 10.555802,-18.35483 0,0 13.464792,-19.0917 -10.506103,-18.29154 -0.829637,-24.34898 18.285204,-10.58463 18.285204,-10.58463 0,0 21.204492,-10.04319 -0.03005,-21.0244 -11.472301,21.21299 -21.086797,-0.0869 -21.086797,-0.0869 0,0 13.497349,-19.17658 -10.57111,-18.3239 -24.068459,0.85268 -10.602595,-18.23216 -10.602595,-18.23216 0,0 23.160067,2.06389 10.573598,-18.27029 -20.764911,12.59571 -18.273866,-10.74245 -18.273866,-10.74245 0,0 21.414985,-9.61162 0.03594,-20.98824 -21.3790448,-11.37662 0.05238,-21.19964 0.05238,-21.19964 0,0 19.091625,13.50687 18.122911,-10.5263 -24.118898,0.7836 -10.453304,-18.39856 -10.453304,-18.39856 0,0 23.309472,2.49201 10.501676,-18.13133 20.569557,-12.91363 18.341234,10.47729 18.341234,10.47729 0,0 19.181339,13.47064 18.254597,-10.43618 -23.955183,0.595 -10.527,-18.40091 -10.527,-18.40091 0,0 -9.889628,-21.4001 -21.090094,0.0835 -21.50856,-11.46104 -0.02972,-21.2428 -0.02972,-21.2428 0,0 19.330131,13.46017 18.057056,-10.5054 -23.981624,0.57493 -10.265133,-18.43501 -10.265133,-18.43501 0,0 23.037458,2.33101 10.339432,-18.38175 C 47.167752,133.40901 70.4858,136.02059 70.4858,136.02059 c 0,0 13.634672,-19.08018 -10.516536,-18.30604 -0.762978,-24.145258 18.338509,-10.62808 18.338509,-10.62808 0,0 21.272117,-9.834392 -0.0085,-21.045461 -11.406172,21.297231 -21.098939,-0.112255 -21.098939,-0.112255 0,0 13.535939,-19.067977 -10.627685,-18.173093 -24.163624,0.894884 -10.507046,-18.363589 -10.507046,-18.363589 0,0 23.167303,1.971719 10.534049,-18.272843 20.729234,-12.76638 18.302145,10.570237 18.302145,10.570237 0,0 19.052432,13.667746 18.320629,-10.610709 24.042084,-0.548922 10.581974,18.328176 10.581974,18.328176 0,0 9.89386,21.414589 21.11662,0.03999 11.33056,-21.414642 21.06347,-0.01885 21.06347,-0.01885 0,0 23.41206,2.220582 10.62969,-18.279899 20.44904,-12.807958 18.24786,10.537669 18.24786,10.537669 0,0 -21.22619,9.752325 0.0369,21.136187 11.31024,-21.356466 21.07024,-0.06467 21.07024,-0.06467 0,0 23.35173,2.147638 10.61948,-18.241776 20.54882,-12.802961 18.29723,10.583299 18.29723,10.583299 0,0 19.22432,13.465106 18.30478,-10.550176 -0.91954,-24.015282 18.28418,-10.620343 18.28418,-10.620343 0,0 -2.36458,23.177702 18.3024,10.595034 -13.06255,-20.628347 10.72376,-18.242712 10.72376,-18.242712 0,0 9.30052,21.357544 20.91349,-0.04095 11.61296,-21.398491 21.1526,-0.0084 21.1526,-0.0084 0,0 -13.33533,19.315054 10.53684,18.282304 0.873,23.944794 -18.27973,10.673978 -18.27973,10.673978 0,0 -21.16316,9.855599 0.0263,20.98692 11.28358,-21.307567 21.13405,0.0093 21.13405,0.0093 0,0 23.41908,2.076031 10.54308,-18.175666 20.31052,-13.010854 18.27525,10.428012 18.27525,10.428012 0,0 19.38902,13.488835 18.34989,-10.591706 -24.09164,1.16244 -10.50029,-18.383331 -10.50029,-18.383331 0,0 23.20451,2.85544 10.6268,-18.144378 -12.57771,-20.99981695 10.38194,-18.18692 10.38194,-18.18692 0,0 10.03071,21.147089 21.15123,-0.1262764 21.59429,11.1932574 0.0296,21.1637274 0.0296,21.1637274 0,0 -2.27285,23.251167 18.29618,10.562824 12.79686,20.247988 -10.49307,18.243655 -10.49307,18.243655 0,0 -13.62449,18.942346 10.57484,18.347499 24.19934,-0.594846 10.37432,18.3475 10.37432,18.3475 0,0 10.14441,21.114962 21.26451,0.03736 21.18975,11.329972 -0.0232,20.997902 -0.0232,20.997902 0,0 -19.04073,-13.564849 -18.28582,10.59731 23.90931,-0.84979 10.59835,18.28064 10.59835,18.28064 0,0 9.76316,21.36135 21.02904,-0.007 21.37024,11.48088 -0.10412,21.16153 -0.10412,21.16153 0,0 -19.23545,-13.57219 -18.10042,10.56257 24.20468,-0.7527 10.44491,18.32726 10.44491,18.32726 0,0 -23.10949,-2.24781 -10.41392,18.35151 12.69557,20.59931 -10.71548,18.17723 -10.71548,18.17723 0,0 -13.35993,19.27155 10.62032,18.27466 0.94943,24.16653 -18.31567,10.55305 -18.31567,10.55305 0,0 -21.18178,10.04876 0.0277,21.19237 11.7461,-21.50801 21.09277,0.1605 21.09277,0.1605 0,0 -13.43742,18.78283 10.76538,18.21535 24.2028,-0.56747 10.40827,18.21201 10.40827,18.21201 0,0 -23.2347,-2.08069 -10.58306,18.32108 12.65165,20.40178 -10.58305,18.32109 -10.58305,18.32109 0,0 -9.59729,-21.42269 -21.01891,-0.0208 21.05952,11.58376 -0.0611,21.0943 -0.0611,21.0943 0,0 -19.21409,-13.50592 -18.30196,10.58462 24.27722,-0.82973 10.54737,18.28009 10.54737,18.28009 0,0 10.07395,21.32181 21.10513,-0.0502 21.46716,11.33401 0.0658,21.18427 0.0658,21.18427 0,0 -19.36524,-13.48956 -18.29172,10.57231 23.88919,-0.86423 10.55605,18.27535 10.55605,18.27535 0,0 9.88718,21.36817 21.06754,0.0195 21.40992,11.29577 -0.14322,21.15488 -0.14322,21.15488 0,0 -18.95308,-13.53654 -18.11552,10.51451 24.15133,-0.63759 10.60166,18.32397 10.60166,18.32397 0,0 9.84729,21.28799 21.06831,-0.0535 21.28221,11.37731 0.12337,21.21445 0.12337,21.21445 0,0 -2.42669,23.08152 18.17122,10.56458 12.57128,20.62034 -10.55793,18.331 -10.55793,18.331 0,0 -13.34963,19.06107 10.58113,18.24254 1.00815,24.1536 -18.26005,10.57297 -18.26005,10.57297 0,0 2.14272,-23.40064 -18.34399,-10.56031 12.69713,20.30285 -10.55769,18.29615 -10.55769,18.29615 0,0 -13.49088,19.11433 10.57946,18.29102 24.07034,-0.82331 10.57946,18.29102 10.57946,18.29102 0,0 9.9063,21.23658 21.05244,-0.0629 21.57491,11.36805 0.0411,21.1763 0.0411,21.1763 0,0 -19.27154,-13.612 -18.20344,10.66136 24.19226,-0.92376 10.47895,18.15858 10.47895,18.15858 0,0 -23.16875,-2.22898 -10.57118,18.32841 12.59758,20.55738 -10.57117,18.32841 -10.57117,18.32841 0,0 -9.82537,-21.36344 -21.02257,-0.0302 21.23589,11.56111 -0.12159,21.14486 -0.12159,21.14486 0,0 -19.19694,-13.53159 -18.28814,10.58556 -24.12761,0.83076 -10.59661,-18.37293 -10.59661,-18.37293 0,0 -9.7521,-21.10357 -21.0671,0.0709 -21.28382,-11.19938 -0.0608,-21.10753 -0.0608,-21.10753 0,0 2.05241,-23.24174 -18.25465,-10.65133 12.85795,20.6194 -10.52955,18.38125 -10.52955,18.38125 0,0 -13.46238,19.41136 10.55136,18.20332 1.00333,24.04606 -18.27481,10.70395 -18.27481,10.70395 0,0 2.30894,-23.66452 -18.32294,-10.57422 12.74823,20.32428 -10.6039,18.22454 -10.6039,18.22454 0,0 -9.61286,-21.289 -21.0897,0.009 -21.16117,-10.98223 -0.0703,-21.16347 -0.0703,-21.16347 0,0 2.25027,-23.32746 -18.17153,-10.52567 12.57138,20.55124 -10.6251,18.29762 -10.6251,18.29762 0,0 -9.67537,-21.4346 -21.13139,0.0278 -11.45601,21.4624 -21.13138,0.0278 -21.13138,0.0278 0,0 13.42942,-19.27494 -10.47559,-18.3041 0.29011,24.14651 -18.35541,10.51894 -18.35541,10.51894 0,0 1.99785,-23.56601 -18.32254,-10.53495 12.8955,20.51103 -10.59687,18.22349 -10.59687,18.22349 0,0 -9.79318,-21.22398 -21.0865,0.0208 -21.26139,-11.49792 -0.0645,-21.12543 -0.0645,-21.12543 0,0 2.30375,-23.26307 -18.27389,-10.54018 12.85778,20.44573 -10.55122,18.26762 -10.55122,18.26762 0,0 -13.47325,19.2657 10.56916,18.22098 0.87759,24.06132 -18.29263,10.69352 -18.29263,10.69352 0,0 1.87497,-23.52819 -18.26996,-10.58304 12.82705,20.35808 -10.604597,18.2862 -10.604597,18.2862 0,0 -9.930057,-21.4801 -21.108621,0.0403 -11.178563,21.52039 -21.140859,-0.0822 -21.140859,-0.0822 0,0 13.412577,-19.24691 -10.495748,-18.07233 -1.29678,-24.36709 18.153032,-10.84085 18.153032,-10.84085 0,0 21.098469,-9.67578 -0.01687,-21.08546 -21.115334,-11.40968 -0.01687,-21.08546 -0.01687,-21.08546 0,0 2.57262,-23.20251 -18.136977,-10.58872 -13.030986,-20.20684 10.483512,-18.29539 10.483512,-18.29539 0,0 13.503933,-19.15161 -10.632857,-18.26365 -24.136791,0.88797 -10.477936,-18.27974 -10.477936,-18.27974 0,0 -9.633755,-21.40353 -21.1274472,0.0241 -6.4038916,-3.18617 -8.67403162,-7.45991 -8.67403162,-7.45991 L 1.4175e-5,768.09584 H 512.06401 V 0 Z"
  />
</clipPath>
<marker
   style="overflow:visible"
   id="arrow"
   refX="0"
   refY="0"
   orient="auto-start-reverse"
   markerWidth="1"
   markerHeight="1"
   viewBox="0 0 4 4"
   preserveAspectRatio="xMidYMid">
  <path
     d="m -0.21114562,-4.1055728 6.42229122,3.21114561 a 1,1 90 0 1 0,1.78885438 L -0.21114562,4.1055728 A 1.236068,1.236068 31.717474 0 1 -2,3 v -6 a 1.236068,1.236068 148.28253 0 1 1.78885438,-1.1055728 z"
     style="fill:context-stroke;fill-rule:evenodd;stroke:none"
     />
</marker>
<path id="rb"
   d="m 0,0 a 25,25 0 1 0 34.6410166,-20"
   fill="rgba(0,0,255,0)"
   stroke="rgba(0,0,255,0)"
   stroke-width="15"
   style="stroke-linecap:round;stroke-miterlimit:1.8;marker-end:url(#arrow)"
/>
</defs>
<rect x="24" y="11" rx="12" fill="none" stroke-width="6" stroke="yellow" width="141" height="59" filter="url(#glower)" />
<text x="175" y="40" font-size="48px" font-family="serif" font-weight="900" fill="#888">moves:</text>
<text id="moves" x="175" y="88" font-size="48px" font-family="serif" font-weight="900" fill="#888">0000000</text>
<g id="timer" font-size="48px" font-family="serif" font-weight="900" mask="url(#tiMask)" filter="url(#glower)">
<title>Rotate pieces with the mousewheel</title>
	<text id="minutesX10" x="36,38,36,36,36,36,36,36,36,36"
		y="60,100,140,180,220,260,300,340,380,420">0123456789</text>
	<text id="minutes" x="62,64,62,62,62,62,62,62,62,62"
		y="60,100,140,180,220,260,300,340,380,420">0123456789</text>
	<text id="colon" x="85" y="55" fill="rgba(0,0,0,0)">:</text>
	<text id="tens" x="100,102,100,100,100,100"
		y="60,100,140,180,220,260">012345</text>
	<text id="singles" x="126,128,126,126,126,126,126,126,126,126"
		y="60,100,140,180,220,260,300,340,380,420">0123456789</text>
  <text id="ages" x="36,66,99,130" y="60,60,60,60" fill-opacity="0">AGES
    <set attributeName="fill-opacity" to="1" begin="6001s" dur="1s" fill="freeze">
    </set>
  </text>
</g>
<use href="#src" x="244" y="116" clip-path="url(#edges)" />
<g transform="translate(0 0)">
<use href="#ur" fill="url(#i01)" x="760" y="101" transform="rotate(0)" />
</g><g transform="translate(0 0)">
<use href="#ur" fill="url(#i40)" x="78" y="500" transform="rotate(0)" />
</g><g transform="translate(0 0)">
<use href="#ur" fill="url(#i16)" x="986" y="500" transform="rotate(0)" />
</g><g transform="translate(0 0)">
<use href="#ur" fill="url(#i48)" x="4" y="700" transform="rotate(0)" />
</g><g transform="translate(0 0)">
<use href="#ur" fill="url(#i10)" x="300" y="898" transform="rotate(0)" />
</g><g transform="translate(0 0)">
<use href="#ur" fill="url(#i25)" x="78" y="700" transform="rotate(0)" />
</g><g transform="translate(0 0)">
<use href="#ur" fill="url(#i61)" x="526" y="898" transform="rotate(0)" />
</g><g transform="translate(0 0)">
<use href="#ur" fill="url(#i17)" x="746" y="898" transform="rotate(0)" />
</g><g transform="translate(0 0)">
<use href="#ur" fill="url(#i76)" x="760" y="700" transform="rotate(0)" />
</g><g transform="translate(0 0)">
<use href="#ur" fill="url(#i44)" x="153" y="500" transform="rotate(0)" />
</g><g transform="translate(0 0)">
<use href="#ur" fill="url(#i20)" x="153" y="400" transform="rotate(0)" />
</g><g transform="translate(0 0)">
<use href="#ur" fill="url(#i31)" x="78" y="300" transform="rotate(0)" />
</g><g transform="translate(0 0)">
<use href="#ur" fill="url(#i62)" x="760" y="799" transform="rotate(0)" />
</g><g transform="translate(0 0)">
<use href="#ur" fill="url(#i07)" x="834" y="300" transform="rotate(0)" />
</g><g transform="translate(0 0)">
<use href="#ur" fill="url(#i14)" x="153" y="799" transform="rotate(0)" />
</g><g transform="translate(0 0)">
<use href="#ur" fill="url(#i03)" x="4" y="600" transform="rotate(0)" />
</g><g transform="translate(0 0)">
<use href="#ur" fill="url(#i70)" x="820" y="2" transform="rotate(0)" />
</g><g transform="translate(0 0)">
<use href="#ur" fill="url(#i46)" x="376" y="898" transform="rotate(0)" />
</g><g transform="translate(0 0)">
<use href="#ur" fill="url(#i04)" x="78" y="101" transform="rotate(0)" />
</g><g transform="translate(0 0)">
<use href="#ur" fill="url(#i43)" x="4" y="200" transform="rotate(0)" />
</g><g transform="translate(0 0)">
<use href="#ur" fill="url(#i28)" x="910" y="600" transform="rotate(0)" />
</g><g transform="translate(0 0)">
<use href="#ur" fill="url(#i11)" x="4" y="300" transform="rotate(0)" />
</g><g transform="translate(0 0)">
<use href="#ur" fill="url(#i42)" x="834" y="101" transform="rotate(0)" />
</g><g transform="translate(0 0)">
<use href="#ur" fill="url(#i73)" x="153" y="700" transform="rotate(0)" />
</g><g transform="translate(0 0)">
<use href="#ur" fill="url(#i45)" x="834" y="400" transform="rotate(0)" />
</g><g transform="translate(0 0)">
<use href="#ur" fill="url(#i55)" x="78" y="799" transform="rotate(0)" />
</g><g transform="translate(0 0)">
<use href="#ur" fill="url(#i38)" x="910" y="799" transform="rotate(0)" />
</g><g transform="translate(0 0)">
<use href="#ur" fill="url(#i65)" x="986" y="300" transform="rotate(0)" />
</g><g transform="translate(0 0)">
<use href="#ur" fill="url(#i29)" x="153" y="600" transform="rotate(0)" />
</g><g transform="translate(0 0)">
<use href="#ur" fill="url(#i15)" x="910" y="500" transform="rotate(0)" />
</g><g transform="translate(0 0)">
<use href="#ur" fill="url(#i18)" x="834" y="200" transform="rotate(0)" />
</g><g transform="translate(0 0)">
<use href="#ur" fill="url(#i34)" x="153" y="898" transform="rotate(0)" />
</g><g transform="translate(0 0)">
<use href="#ur" fill="url(#i05)" x="910" y="700" transform="rotate(0)" />
</g><g transform="translate(0 0)">
<use href="#ur" fill="url(#i71)" x="896" y="2" transform="rotate(0)" />
</g><g transform="translate(0 0)">
<use href="#ur" fill="url(#i49)" x="672" y="898" transform="rotate(0)" />
</g><g transform="translate(0 0)">
<use href="#ur" fill="url(#i02)" x="760" y="400" transform="rotate(0)" />
</g><g transform="translate(0 0)">
<use href="#ur" fill="url(#i47)" x="834" y="500" transform="rotate(0)" />
</g><g transform="translate(0 0)">
<use href="#ur" fill="url(#i52)" x="760" y="600" transform="rotate(0)" />
</g><g transform="translate(0 0)">
<use href="#ur" fill="url(#i57)" x="78" y="600" transform="rotate(0)" />
</g><g transform="translate(0 0)">
<use href="#ur" fill="url(#i35)" x="910" y="300" transform="rotate(0)" />
</g><g transform="translate(0 0)">
<use href="#ur" fill="url(#i53)" x="599" y="898" transform="rotate(0)" />
</g><g transform="translate(0 0)">
<use href="#ur" fill="url(#i39)" x="376" y="2" transform="rotate(0)" />
</g><g transform="translate(0 0)">
<use href="#ur" fill="url(#i67)" x="226" y="898" transform="rotate(0)" />
</g><g transform="translate(0 0)">
<use href="#ur" fill="url(#i74)" x="834" y="600" transform="rotate(0)" />
</g><g transform="translate(0 0)">
<use href="#ur" fill="url(#i37)" x="4" y="500" transform="rotate(0)" />
</g><g transform="translate(0 0)">
<use href="#ur" fill="url(#i50)" x="78" y="400" transform="rotate(0)" />
</g><g transform="translate(0 0)">
<use href="#ur" fill="url(#i54)" x="986" y="101" transform="rotate(0)" />
</g><g transform="translate(0 0)">
<use href="#ur" fill="url(#i41)" x="153" y="101" transform="rotate(0)" />
</g><g transform="translate(0 0)">
<use href="#ur" fill="url(#i33)" x="820" y="898" transform="rotate(0)" />
</g><g transform="translate(0 0)">
<use href="#ur" fill="url(#i72)" x="910" y="200" transform="rotate(0)" />
</g><g transform="translate(0 0)">
<use href="#ur" fill="url(#i23)" x="4" y="101" transform="rotate(0)" />
</g><g transform="translate(0 0)">
<use href="#ur" fill="url(#i64)" x="672" y="2" transform="rotate(0)" />
</g><g transform="translate(0 0)">
<use href="#ur" fill="url(#i19)" x="153" y="300" transform="rotate(0)" />
</g><g transform="translate(0 0)">
<use href="#ur" fill="url(#i12)" x="760" y="500" transform="rotate(0)" />
</g><g transform="translate(0 0)">
<use href="#ur" fill="url(#i36)" x="78" y="200" transform="rotate(0)" />
</g><g transform="translate(0 0)">
<use href="#ur" fill="url(#i21)" x="986" y="600" transform="rotate(0)" />
</g><g transform="translate(0 0)">
<use href="#ur" fill="url(#i06)" x="526" y="2" transform="rotate(0)" />
</g><g transform="translate(0 0)">
<use href="#ur" fill="url(#i59)" x="4" y="898" transform="rotate(0)" />
</g><g transform="translate(0 0)">
<use href="#ur" fill="url(#i27)" x="4" y="400" transform="rotate(0)" />
</g><g transform="translate(0 0)">
<use href="#ur" fill="url(#i60)" x="986" y="799" transform="rotate(0)" />
</g><g transform="translate(0 0)">
<use href="#ur" fill="url(#i13)" x="986" y="200" transform="rotate(0)" />
</g><g transform="translate(0 0)">
<use href="#ur" fill="url(#i58)" x="896" y="898" transform="rotate(0)" />
</g><g transform="translate(0 0)">
<use href="#ur" fill="url(#i79)" x="834" y="700" transform="rotate(0)" />
</g><g transform="translate(0 0)">
<use href="#ur" fill="url(#i68)" x="760" y="300" transform="rotate(0)" />
</g><g transform="translate(0 0)">
<use href="#ur" fill="url(#i66)" x="4" y="799" transform="rotate(0)" />
</g><g transform="translate(0 0)">
<use href="#ur" fill="url(#i69)" x="452" y="898" transform="rotate(0)" />
</g><g transform="translate(0 0)">
<use href="#ur" fill="url(#i63)" x="599" y="2" transform="rotate(0)" />
</g><g transform="translate(0 0)">
<use href="#ur" fill="url(#i08)" x="153" y="200" transform="rotate(0)" />
</g><g transform="translate(0 0)">
<use href="#ur" fill="url(#i51)" x="910" y="101" transform="rotate(0)" />
</g><g transform="translate(0 0)">
<use href="#ur" fill="url(#i09)" x="986" y="400" transform="rotate(0)" />
</g><g transform="translate(0 0)">
<use href="#ur" fill="url(#i77)" x="746" y="2" transform="rotate(0)" />
</g><g transform="translate(0 0)">
<use href="#ur" fill="url(#i56)" x="910" y="400" transform="rotate(0)" />
</g><g transform="translate(0 0)">
<use href="#ur" fill="url(#i32)" x="986" y="2" transform="rotate(0)" />
</g><g transform="translate(0 0)">
<use href="#ur" fill="url(#i75)" x="986" y="898" transform="rotate(0)" />
</g><g transform="translate(0 0)">
<use href="#ur" fill="url(#i22)" x="78" y="898" transform="rotate(0)" />
</g><g transform="translate(0 0)">
<use href="#ur" fill="url(#i30)" x="760" y="200" transform="rotate(0)" />
</g><g transform="translate(0 0)">
<use href="#ur" fill="url(#i26)" x="986" y="700" transform="rotate(0)" />
</g><g transform="translate(0 0)">
<use href="#ur" fill="url(#i24)" x="834" y="799" transform="rotate(0)" />
</g><g transform="translate(0 0)">
<use href="#ur" fill="url(#i78)" x="452" y="2" transform="rotate(0)" />
</g>
<use id="cw" href="#rb" x="-645" y="882" transform="scale(-1,1)" />
<use id="acw" href="#rb" x="670" y="882" />
</svg>
